<?xml version="1.0" encoding="UTF-8"?>
<svg width="24px" height="24px" viewBox="0 0 24 24" version="1.1" xmlns="http://www.w3.org/2000/svg" xmlns:xlink="http://www.w3.org/1999/xlink">
    <title>Group</title>
    <g id="Page-1" stroke="none" stroke-width="1" fill="none" fill-rule="evenodd">
        <g id="Group" transform="translate(12.000000, 12.000000) scale(-1, 1) translate(-12.000000, -12.000000) " fill="#000000">
            <path d="M7,9 L0,9 L0,2 L1,2 L1,7.2 C2.853,2.963 7.083,0 12,0 C18.623,0 24,5.377 24,12 C24,18.623 18.623,24 12,24 C5.714,24 0.55,19.156 0.041,13 L1.045,13 C1.551,18.603 6.266,23 12,23 C18.071,23 23,18.071 23,12 C23,5.929 18.071,1 12,1 C7.34,1 3.353,3.904 1.751,8 L7,8 L7,9 Z" id="Path"></path>
        </g>
    </g>
</svg>